<svg width="22" height="22" viewBox="0 0 22 22" fill="none" xmlns="http://www.w3.org/2000/svg">
<path d="M10.9999 20.1666C5.93731 20.1666 1.83325 16.0626 1.83325 11C1.83325 5.93737 5.93731 1.83331 10.9999 1.83331C16.0625 1.83331 20.1666 5.93737 20.1666 11C20.161 16.0603 16.0602 20.1611 10.9999 20.1666ZM10.9999 3.66665C6.94983 3.66665 3.66659 6.94989 3.66659 11C3.66659 15.0501 6.94983 18.3333 10.9999 18.3333C15.05 18.3333 18.3333 15.0501 18.3333 11C18.3287 6.95178 15.0481 3.67119 10.9999 3.66665ZM10.9999 16.5C9.5516 16.5245 8.18263 15.84 7.33325 14.6666C6.92082 14.1151 6.61038 13.4942 6.41659 12.8333H15.5833C15.5833 12.8333 15.5833 12.8333 15.5833 12.8406C15.3865 13.4981 15.0762 14.1161 14.6666 14.6666C13.8171 15.8399 12.4482 16.5243 10.9999 16.5ZM7.79159 11C7.03219 11 6.41659 10.3844 6.41659 9.62498C6.41659 8.86559 7.03219 8.24998 7.79159 8.24998C8.55098 8.24998 9.16659 8.86559 9.16659 9.62498C9.16659 10.3844 8.55098 11 7.79159 11ZM14.2018 10.9871C13.446 10.9871 12.8333 10.3744 12.8333 9.61856C12.8333 8.86272 13.446 8.24998 14.2018 8.24998C14.9577 8.24998 15.5704 8.86272 15.5704 9.61856C15.5694 10.374 14.9573 10.9861 14.2018 10.9871Z" fill="black"/>
</svg>
